<?xml version="1.0" encoding="UTF-8"?>
<svg width="114.39" height="115.27" version="1.1" viewBox="0 0 30.267 30.499" xmlns="http://www.w3.org/2000/svg" xmlns:xlink="http://www.w3.org/1999/xlink">
 <defs>
  <radialGradient id="k" cx="-224.29" cy="252.92" r="12.965" gradientTransform="matrix(1.1242 0 0 1.1329 27.306 -33.916)" gradientUnits="userSpaceOnUse">
   <stop stop-color="#97eeff" offset="0"/>
   <stop stop-color="#000f69" offset="1"/>
  </radialGradient>
 </defs>
 <g transform="translate(240.02 -237.32)">
  <ellipse cx="-224.84" cy="252.62" rx="14.575" ry="14.688" fill="url(#k)" stroke="#000" stroke-width=".27537"/>
  <path transform="matrix(.97218 0 0 .97824 -6.209 5.632)" d="M-222.519 266.193c6.652.716 9.434-4.469 9.434-4.469-9.812 7.9-16.981-2.383-16.981-2.383s2.713 6.332 7.547 6.852m6.554-2.98c6.119-2.706 5.936-8.587 5.936-8.587-4.548 11.747-15.898 6.427-15.898 6.427s5.516 4.127 9.962 2.16m4.186-5.858c3.946-5.403.847-10.405.847-10.405 1.935 12.448-10.555 13.515-10.555 13.515s6.84.817 9.708-3.11m.696-7.166c.716-6.652-4.469-9.435-4.469-9.435 7.9 9.813-2.383 16.982-2.383 16.982s6.332-2.713 6.852-7.547m-2.98-6.554c-2.706-6.119-8.587-5.936-8.587-5.936 11.747 4.548 6.427 15.898 6.427 15.898s4.127-5.516 2.16-9.962m-5.858-4.186c-5.403-3.946-10.405-.847-10.405-.847 12.448-1.935 13.515 10.555 13.515 10.555s.817-6.841-3.11-9.708m-7.166-.697c-6.652-.715-9.435 4.47-9.435 4.47 9.813-7.9 16.982 2.383 16.982 2.383s-2.713-6.333-7.547-6.853m-6.554 2.98c-6.119 2.707-5.936 8.588-5.936 8.588 4.548-11.747 15.898-6.427 15.898-6.427s-5.516-4.127-9.962-2.16m-4.186 5.859c-3.946 5.403-.847 10.405-.847 10.405-1.935-12.448 10.555-13.515 10.555-13.515s-6.841-.817-9.708 3.11m-.697 7.166c-.715 6.652 4.47 9.434 4.47 9.434-7.9-9.812 2.383-16.981 2.383-16.981s-6.333 2.713-6.853 7.547m2.98 6.554c2.707 6.119 8.588 5.936 8.588 5.936-11.747-4.548-6.427-15.898-6.427-15.898s-4.127 5.516-2.16 9.962m5.859 4.186c5.403 3.946 10.405.847 10.405.847-12.448 1.935-13.515-10.555-13.515-10.555s-.817 6.84 3.11 9.708"/>
 </g>
</svg>
