<?xml version="1.0" encoding="UTF-8"?>
<svg width="505.63" height="373.59" fill="none" version="1.1" viewBox="0 0 505.63 373.59" xmlns="http://www.w3.org/2000/svg">
 <g transform="translate(-231.55 172.73)" clip-path="url(#clip0_1_194)">
  <mask id="mask0_1_194" x="-1" y="0" width="739" height="201" maskUnits="userSpaceOnUse">
   <path d="m737.18 0.2998h-737.18v200.57h737.18z" fill="#fff"/>
  </mask>
  <g mask="url(#mask0_1_194)">
   <g fill="#fff">
    <path d="m345.95 199.6c-12.597 0-25.847-6.716-37.347-18.134-0.437 0.761-0.9 1.497-1.376 2.208-4.846 7.262-14.182 15.926-31.187 15.926-11.639 0-27.325-4.516-35.983-26.03-5.804-14.418-8.506-36.516-8.506-69.549 0-28.98 3.343-52.087 9.933-68.673 3.812-9.6029 8.817-17.202 14.868-22.587 7.104-6.3174 15.762-9.6601 25.028-9.6601 12.229 0 22.72 5.5182 29.539 15.54 1.04 1.535 1.991 3.1651 2.847 4.8903 13.562-13.586 27.357-20.436 41.235-20.436 18.28 0 30.085 12.629 30.085 32.177 0 11.036-5.114 23.849-15.205 38.07-5.816 8.1946-13.053 16.586-21.286 24.686 15.127 22.847 29.056 51.237 29.056 69.155 0 8.665-3.247 16.784-9.153 22.86-5.981 6.159-13.992 9.552-22.561 9.552z"/>
    <path d="m369.87 35.269c0-9.2921-3.717-16.954-14.861-16.954-12.077 0-29.957 8.5945-51.789 43.892 0.697-4.1796 0.926-8.1312 0.926-11.842 0-19.047-7.897-32.05-22.758-32.05-22.53 0-34.606 31.816-34.606 85.698 0 63.174 9.983 80.356 29.265 80.356 16.257 0 24.616-11.151 25.549-39.712 11.614 25.314 30.426 39.712 44.361 39.712 9.058 0 16.492-7.434 16.492-17.189 0-14.398-14.633-45.287-33.909-71.299 22.067-19.276 41.342-44.127 41.342-60.618z"/>
    <path d="m695.02 83.124c-22.864 0-41.466-18.883-41.466-42.097 0-11.106 4.231-21.394 11.902-28.968 7.691-7.586 18.188-11.759 29.564-11.759 11.381 0 22.054 4.1418 29.864 11.658 7.932 7.6368 12.298 18.039 12.298 29.298 0 23.088-18.913 41.869-42.162 41.869z"/>
    <path d="m695.02 67.902c14.863 0 26.938-12.071 26.938-26.646 0-14.576-11.376-25.733-26.938-25.733-15.558 0-26.247 11.157-26.247 25.504 0 14.348 11.615 26.875 26.247 26.875z"/>
    <path d="m692 200.86c-14.974 0-27.237-7.446-34.513-20.956-5.928-11.018-8.816-26.279-8.816-46.645 0-20.367 2.899-35.602 8.862-46.62 7.403-13.681 19.973-21.216 35.392-21.216 15.42 0 26.577 6.6535 33.65 19.237 5.966 10.618 8.746 25.479 8.746 46.772s-2.822 36.915-8.631 48.059c-7.18 13.777-19.505 21.369-34.69 21.369z"/>
    <path d="m692.92 80.654c-19.973 0-29.03 17.766-29.03 52.607 0 34.841 9.291 52.379 28.105 52.379 18.813 0 28.105-17.081 28.105-54.199 0-37.118-9.057-50.787-27.172-50.787z"/>
    <path d="m597.71 200.86c-15.312 0-26.077-6.945-31.983-20.639-3.785-8.779-5.759-20.545-6.45-39.243-4.922-2.087-9-4.789-12.325-8.157-6.323-6.406-9.526-14.766-9.526-24.845 0-10.7 3.072-19.466 9.127-26.05 3.287-3.5708 7.372-6.4316 12.336-8.6197 0.883-21.521 7.691-39.611 19.824-52.525 12.413-13.212 30.12-20.487 49.886-20.487 14.156 0 26.447 3.8057 35.542 10.998 9.661 7.6431 14.982 18.445 14.982 30.414 0 15.87-8.339 28.479-21.804 34.911 8.389 5.4613 14.835 14.423 14.835 29.31 0 13.396-4.638 23.678-13.783 30.573-5.322 4.008-11.964 6.767-20.753 8.531-1.148 16.212-3.597 27.534-7.656 35.849-6.393 13.073-17.542 19.98-32.252 19.98z"/>
    <path d="m663.89 41.712c0-14.347-12.774-26.189-35.304-26.189-30.654 0-54.578 20.95-54.578 62.629v6.3744c-14.863 2.9621-21.371 9.7934-21.371 23.456 0 11.842 6.504 18.673 21.597 21.635 0.465 44.184 6.274 56.026 23.456 56.026 17.181 0 24.154-12.527 25.314-53.971 24.618-2.048 33.91-8.88 33.91-25.732 0-15.033-9.292-21.179-33.91-22.999-0.235-8.2011-0.235-14.119-0.461-18.445 3.716 0.9134 8.593 1.5922 12.774 1.5922 17.65 0 28.566-9.7934 28.566-24.369z"/>
    <path d="m418.64 199.6c-20.533 0-39.351-8.67-52.988-24.413-13.085-15.102-20.297-35.596-20.297-57.694 0-22.098 7.186-41.786 20.233-56.013 13.371-14.582 32.215-22.618 53.052-22.618s39.716 7.9221 53.012 22.308c13.262 14.354 20.273 33.826 20.273 56.318 0 22.491-7.207 42.591-20.3 57.694-13.641 15.742-32.459 24.413-52.985 24.413z"/>
    <path d="m418.64 54.082c-34.145 0-58.063 26.012-58.063 63.402 0 37.391 24.851 66.885 58.063 66.885 33.211 0 58.061-28.796 58.061-66.885 0-38.088-23.92-63.402-58.061-63.402zm-2.55 77.572c-7.199 0-12.539-6.501-12.539-14.398 0-7.199 5.34-13.009 12.539-13.009s12.31 5.803 12.31 13.009c0 7.897-5.341 14.398-12.31 14.398z"/>
    <path d="m511.71 143.86c-13.257 0-22.791-2.492-30.009-7.846-8.835-6.558-13.319-16.7-13.319-30.134 0-15.737 7.072-24.414 13.004-28.923 7.706-5.8606 18.007-8.5944 32.409-8.5944 14.406 0 25.049 2.5372 32.824 7.9793 6.485 4.5413 14.218 13.472 14.218 30.236 0 16.764-8.209 25.764-15.097 30.096-7.898 4.973-18.395 7.186-34.037 7.186z"/>
    <path d="m513.8 83.581c-21.597 0-30.19 7.199-30.19 22.295 0 17.417 9.756 22.758 28.105 22.758 23.92 0 33.907-5.575 33.907-22.066 0-16.492-9.983-22.993-31.814-22.993z"/>
    <path d="m240.75 73.243v3.641-3.641z"/>
    <path d="m683.06 58.671h-34.387v24.363h34.387z"/>
   </g>
   <path d="m668.77 41.028c0 14.804 11.615 26.875 26.247 26.875s26.938-12.071 26.938-26.646c0-14.576-11.376-25.733-26.938-25.733-15.558 0-26.247 11.157-26.247 25.504zm-4.876 92.236c0 35.298 9.292 52.379 28.105 52.379 18.814 0 28.105-17.081 28.105-54.199 0-37.118-9.057-50.787-27.172-50.787-19.973 0-29.03 17.766-29.03 52.607m-111.25-25.282c0 11.842 6.501 18.673 21.598 21.635 0.46 44.184 6.273 56.026 23.455 56.026s24.154-12.527 25.314-53.971c24.615-2.048 33.907-8.88 33.907-25.732 0-15.033-9.292-21.179-33.907-22.999-0.234-8.2011-0.234-14.119-0.465-18.445 3.717 0.9134 8.597 1.5922 12.774 1.5922 17.654 0 28.57-9.7934 28.57-24.369 0-14.576-12.774-26.19-35.304-26.19-30.655 0-54.579 20.95-54.579 62.629v6.3747c-14.862 2.9618-21.37 9.793-21.37 23.455m-69.034-2.112c0 17.417 9.756 22.758 28.105 22.758 23.92 0 33.906-5.575 33.906-22.067 0-16.491-9.986-22.992-31.814-22.992-21.823 0-30.19 7.1991-30.19 22.295m-80.072 11.385c0-7.199 5.34-13.009 12.539-13.009s12.314 5.804 12.314 13.009c0 7.897-5.341 14.398-12.314 14.398-6.972 0-12.539-6.501-12.539-14.398zm-42.966 0.235c0 38.088 24.851 66.884 58.062 66.884 33.212 0 58.061-28.796 58.061-66.884 0-38.089-23.92-63.403-58.061-63.403-34.144 0-58.062 26.012-58.062 63.403zm-79.196-99.176c-22.53 0-34.606 31.815-34.606 85.697 0 63.174 9.989 80.357 29.265 80.357 16.257 0 24.617-11.15 25.549-39.712 11.614 25.314 30.426 39.712 44.361 39.712 9.058 0 16.491-7.434 16.491-17.189 0-14.398-14.632-45.287-33.908-71.299 22.067-19.276 41.342-44.127 41.342-60.618 0-9.2921-3.717-16.954-14.861-16.954-12.076 0-29.957 8.5945-51.789 43.892 0.698-4.1797 0.926-8.1313 0.926-11.842 0-19.048-7.896-32.05-22.758-32.05" fill="#202020"/>
  </g>
 </g>
 <defs>
  <clipPath id="clip0_1_194">
   <rect transform="translate(-.0058594 .2998)" width="737.18" height="200.81" fill="#fff"/>
  </clipPath>
  <mask id="mask0_1_219" x="-1" y="0" width="242" height="194" maskUnits="userSpaceOnUse">
   <path d="m240.47 0.95898h-240.47v192.96h240.47z" fill="#fff"/>
  </mask>
 </defs>
 <g transform="translate(153.38 18.987)" mask="url(#mask0_1_219)">
  <path d="m96.134 193.91c-35.003 0-63.475-15.655-80.162-44.082-14.774-24.917-15.978-51.906-15.978-82.063 0-17.879 5.3788-33.445 15.547-45.02 9.3448-10.631 22.586-17.518 37.29-19.393 17.454-2.2111 39.153-2.3948 61.713-2.3948 36.714 0 47.085 0.44982 61.53 1.8943 19.215 1.907 35.383 9.0787 46.749 20.742 11.544 11.847 17.645 27.667 17.645 45.767v3.6367c0 30.886-20.648 56.734-49.423 63.76-2.148 5.068-4.809 10.112-7.957 15.078l-0.083 0.127c-10.137 15.668-33.964 41.954-79.605 41.954h-7.2729z" fill="#fff"/>
  <path d="m174.57 17.977c-13.641-1.3621-23.188-1.8183-60.016-1.8183-23.644 0-43.651 0.2281-59.788 2.2745-21.37 2.7306-39.559 19.095-39.559 49.334 0 30.239 1.5902 53.655 13.868 74.34 13.868 23.644 37.056 36.6 67.067 36.6h7.2728c36.828 0 56.836-19.551 66.839-35.009 4.321-6.824 7.501-13.64 9.548-20.464 26.146-2.274 45.469-23.872 45.469-50.24v-3.6364c0-28.414-18.639-48.194-50.696-51.38z" fill="#fff"/>
  <path d="m15.198 67.767c0-30.239 18.189-46.603 39.558-49.334 16.143-2.0464 36.15-2.2745 59.788-2.2745 36.828 0 46.375 0.4562 60.015 1.8183 32.058 3.1804 50.696 22.96 50.696 51.38v3.6364c0 26.375-19.323 47.972-45.469 50.24-2.046 6.824-5.227 13.64-9.548 20.464-10.003 15.458-30.01 35.009-66.838 35.009h-7.2736c-30.011 0-53.199-12.956-67.067-36.6-12.278-20.685-13.868-43.651-13.868-74.34" fill="#202020"/>
  <path d="m32.247 67.99c0 29.327 1.8185 48.194 11.366 65.699 10.91 20.235 30.689 27.964 53.199 27.964h7.0453c29.554 0 43.879-14.324 51.836-26.824 3.865-6.367 7.273-13.412 9.091-22.282l1.363-5.683h8.185c18.189 0 33.876-14.774 33.876-33.647v-3.4084c0-21.141-13.184-32.285-36.15-35.01-12.956-1.1341-20.686-1.5903-57.52-1.5903-24.778 0-42.511 0.228-55.923 2.2744-18.867 2.7306-26.374 13.412-26.374 32.507" fill="#fff"/>
  <path d="m166.16 83.68c0 2.7306 2.046 4.7771 5.683 4.7771 11.594 0 17.961-6.5953 17.961-17.505s-6.367-17.733-17.961-17.733c-3.637 0-5.683 2.0462-5.683 4.7768v25.69z" fill="#202020"/>
  <path d="m54.532 82.32c0 13.412 7.5011 25.006 17.049 34.104 6.3671 6.138 16.371 12.506 23.188 16.598 2.0462 1.135 4.0926 1.819 6.3675 1.819 2.73 0 4.998-0.684 6.823-1.819 6.823-4.092 16.82-10.46 22.96-16.598 9.775-9.092 17.276-20.686 17.276-34.104 0-14.552-10.909-27.508-26.596-27.508-9.319 0-15.687 4.7767-20.463 11.366-4.3213-6.5952-10.91-11.366-20.236-11.366-15.915 0-26.374 12.956-26.374 27.508" fill="#ff5a16"/>
 </g>
</svg>
